<svg width="534" height="149" viewBox="0 0 534 149" fill="none" xmlns="http://www.w3.org/2000/svg">
<path fill-rule="evenodd" clip-rule="evenodd" d="M2.22354 137.737C2.22428 137.701 2.21438 137.667 2.19511 137.637C2.17008 137.604 2.13514 137.581 2.09551 137.57C2.03404 137.55 1.97094 137.535 1.90695 137.527C1.80907 137.514 1.71038 137.508 1.61164 137.509C1.51766 137.508 1.42374 137.514 1.33063 137.527C1.2655 137.536 1.20122 137.55 1.13842 137.57C1.09692 137.581 1.05981 137.604 1.03198 137.637C1.01055 137.666 0.999308 137.701 1.00004 137.737V146.574C0.999262 146.61 1.00917 146.644 1.02848 146.674C1.05347 146.707 1.08843 146.73 1.12808 146.742C1.19064 146.762 1.25493 146.776 1.32014 146.784C1.41686 146.797 1.51438 146.803 1.61195 146.802C1.71068 146.803 1.80937 146.797 1.90725 146.784C1.97127 146.776 2.03438 146.761 2.09581 146.742C2.13543 146.73 2.17037 146.707 2.19541 146.674C2.21466 146.644 2.22456 146.61 2.22385 146.574V137.737H2.22354ZM11.7763 137.758C11.7762 137.725 11.7655 137.692 11.7459 137.666C11.7203 137.633 11.6867 137.607 11.6483 137.591C11.5884 137.566 11.5251 137.551 11.4605 137.545C11.3657 137.535 11.2705 137.53 11.1752 137.531C11.0736 137.53 10.9721 137.535 10.8711 137.545C10.8066 137.551 10.7433 137.567 10.6833 137.591C10.6435 137.606 10.6086 137.632 10.582 137.666C10.5624 137.692 10.5517 137.725 10.5516 137.758V142.753C10.5516 143.128 10.5528 143.519 10.5551 143.924C10.5574 144.33 10.5634 144.72 10.5729 145.095H10.5662C10.4561 144.872 10.3449 144.65 10.2327 144.43C10.1205 144.209 10.007 143.985 9.89225 143.757C9.7776 143.53 9.65843 143.298 9.53475 143.064C9.41107 142.829 9.28268 142.588 9.14957 142.341L6.99027 138.3C6.92438 138.172 6.84969 138.05 6.76674 137.933C6.7057 137.846 6.63134 137.769 6.5464 137.705C6.46899 137.65 6.38177 137.61 6.28941 137.588C6.17254 137.562 6.05299 137.55 5.93328 137.552H5.33081C5.20306 137.552 5.07905 137.595 4.97832 137.674C4.92088 137.724 4.87622 137.786 4.84811 137.857C4.82001 137.927 4.80928 138.004 4.81683 138.079V146.575C4.81725 146.61 4.82784 146.643 4.84725 146.671C4.8711 146.705 4.9054 146.73 4.94487 146.743C5.00462 146.763 5.06619 146.777 5.12872 146.785C5.32569 146.809 5.52479 146.809 5.72176 146.785C5.78547 146.777 5.84827 146.762 5.90941 146.743C5.95005 146.73 5.98544 146.705 6.00992 146.67C6.02934 146.642 6.03992 146.609 6.04033 146.574V141.017C6.04033 140.665 6.03795 140.312 6.03319 139.956C6.02842 139.601 6.02133 139.252 6.0119 138.91H6.02619C6.15474 139.19 6.29357 139.479 6.44269 139.775C6.59182 140.071 6.73983 140.355 6.88672 140.625L9.69563 145.862C9.77581 146.021 9.86729 146.173 9.96935 146.318C10.0423 146.423 10.129 146.518 10.2269 146.599C10.3069 146.665 10.3996 146.714 10.4993 146.742C10.6086 146.769 10.7211 146.783 10.8338 146.781H11.2385C11.3033 146.781 11.3677 146.771 11.4298 146.752C11.4932 146.734 11.5521 146.702 11.6028 146.66C11.656 146.615 11.6987 146.559 11.728 146.496C11.7618 146.42 11.7781 146.338 11.7757 146.254V137.758H11.7763ZM21.1618 140.156C20.9853 139.632 20.6963 139.152 20.315 138.751C19.9266 138.354 19.4536 138.05 18.9312 137.861C18.2813 137.639 17.597 137.534 16.9103 137.552H14.8249C14.7123 137.553 14.6034 137.592 14.5154 137.662C14.4623 137.711 14.4214 137.771 14.3961 137.838C14.3707 137.906 14.3617 137.978 14.3696 138.05V146.261C14.3617 146.333 14.3708 146.405 14.3961 146.473C14.4214 146.54 14.4623 146.6 14.5154 146.649C14.6034 146.719 14.7123 146.758 14.8249 146.759H16.7746C17.4644 146.774 18.1518 146.675 18.8097 146.468C19.3515 146.29 19.8447 145.989 20.2507 145.589C20.6583 145.171 20.964 144.664 21.1437 144.109C21.3597 143.434 21.4631 142.729 21.4497 142.02C21.4591 141.387 21.3617 140.757 21.1615 140.156H21.1618ZM19.9593 143.696C19.8439 144.117 19.6361 144.507 19.351 144.838C19.0763 145.145 18.7288 145.377 18.3406 145.514C17.8613 145.673 17.3582 145.748 16.8534 145.735H15.5939V138.569H16.8391C17.371 138.551 17.9011 138.64 18.3975 138.833C18.7834 138.995 19.1259 139.246 19.3973 139.565C19.6672 139.891 19.8649 140.271 19.9772 140.679C20.1037 141.132 20.1659 141.6 20.1622 142.07C20.172 142.619 20.1036 143.166 19.959 143.696H19.9593ZM30.4051 137.737C30.4058 137.701 30.3945 137.666 30.3731 137.637C30.3471 137.605 30.3125 137.582 30.2735 137.57C30.2133 137.549 30.1513 137.535 30.0884 137.527C29.9929 137.514 29.8966 137.508 29.8002 137.509C29.7015 137.508 29.6028 137.514 29.5049 137.527C29.4409 137.535 29.3778 137.55 29.3164 137.57C29.2767 137.581 29.2417 137.604 29.2168 137.637C29.1974 137.667 29.1875 137.701 29.1883 137.737V143.365C29.1951 143.731 29.1434 144.097 29.0354 144.447C28.9455 144.734 28.7951 144.998 28.5944 145.222C28.4002 145.432 28.1587 145.593 27.89 145.692C27.5854 145.801 27.2636 145.854 26.9401 145.848C26.621 145.853 26.3037 145.799 26.0043 145.688C25.7336 145.586 25.4901 145.423 25.2928 145.211C25.0859 144.983 24.9316 144.712 24.8408 144.418C24.7301 144.056 24.6772 143.679 24.6844 143.301V137.737C24.6851 137.701 24.6752 137.667 24.6558 137.637C24.6318 137.605 24.5982 137.581 24.5598 137.57C24.4985 137.549 24.4354 137.535 24.3713 137.527C24.2745 137.514 24.177 137.508 24.0795 137.509C23.9796 137.508 23.8797 137.513 23.7807 137.527C23.7178 137.536 23.6559 137.55 23.5956 137.57C23.5559 137.581 23.521 137.604 23.496 137.637C23.4767 137.667 23.4668 137.701 23.4676 137.737V143.451C23.4582 143.959 23.5402 144.465 23.7095 144.945C23.8548 145.352 24.0908 145.721 24.3997 146.023C24.7067 146.315 25.0732 146.537 25.474 146.673C25.9207 146.825 26.3899 146.9 26.8616 146.894C27.3672 146.902 27.8703 146.822 28.3488 146.659C28.7657 146.515 29.145 146.279 29.4589 145.969C29.7704 145.653 30.0095 145.273 30.1597 144.855C30.3305 144.375 30.4137 143.867 30.4053 143.357V137.737H30.4051ZM26.3277 136.527C26.2924 136.566 26.2657 136.612 26.2494 136.662C26.2442 136.679 26.2435 136.696 26.2473 136.713C26.251 136.73 26.2592 136.746 26.2708 136.758C26.3066 136.79 26.3513 136.81 26.3989 136.815C26.4836 136.829 26.5693 136.835 26.6551 136.833C26.7394 136.834 26.8237 136.83 26.9077 136.822C26.9692 136.817 27.03 136.805 27.0891 136.787C27.138 136.772 27.1847 136.75 27.2279 136.723C27.2755 136.691 27.3196 136.654 27.3595 136.612L28.9748 135.104C29.0121 135.066 29.0401 135.02 29.0566 134.969C29.0627 134.949 29.0629 134.927 29.0572 134.907C29.0515 134.887 29.0402 134.869 29.0246 134.855C28.9754 134.814 28.9167 134.786 28.8538 134.773C28.744 134.749 28.6317 134.738 28.5193 134.741C28.4006 134.741 28.2987 134.745 28.2133 134.752C28.1386 134.757 28.0646 134.77 27.9927 134.791C27.9334 134.809 27.8771 134.835 27.8254 134.869C27.7681 134.909 27.7166 134.957 27.6724 135.011L26.3277 136.527ZM37.7413 143.226C37.6261 142.967 37.4646 142.731 37.2646 142.529C37.0639 142.329 36.8378 142.157 36.5921 142.017C36.3406 141.872 36.0845 141.739 35.8236 141.618C35.5628 141.497 35.3066 141.378 35.0551 141.259C34.8193 141.15 34.5942 141.019 34.3827 140.868C34.1953 140.735 34.0348 140.569 33.9094 140.377C33.787 140.178 33.7252 139.948 33.7315 139.715C33.7306 139.544 33.762 139.375 33.8241 139.217C33.8844 139.062 33.9793 138.923 34.1017 138.811C34.2384 138.69 34.398 138.597 34.5712 138.538C34.7866 138.465 35.013 138.43 35.2403 138.434C35.492 138.431 35.7427 138.466 35.9839 138.538C36.181 138.597 36.3726 138.673 36.5567 138.766C36.7179 138.849 36.8543 138.924 36.9659 138.99C37.0388 139.042 37.1228 139.076 37.2113 139.089C37.2438 139.09 37.2754 139.078 37.3003 139.057C37.3298 139.031 37.3509 138.996 37.3611 138.958C37.3771 138.903 37.3878 138.847 37.3931 138.791C37.4006 138.715 37.4042 138.639 37.4037 138.562C37.4037 138.472 37.4014 138.399 37.3967 138.342C37.393 138.293 37.3859 138.244 37.3753 138.196C37.3678 138.161 37.3559 138.128 37.3397 138.096C37.3147 138.057 37.2848 138.022 37.2507 137.99C37.1653 137.919 37.0708 137.859 36.9697 137.812C36.8131 137.733 36.6504 137.666 36.4831 137.613C36.2922 137.552 36.0972 137.504 35.8995 137.471C35.6963 137.435 35.4904 137.417 35.2841 137.417C34.9069 137.414 34.5314 137.468 34.1704 137.577C33.8465 137.673 33.5444 137.832 33.281 138.043C33.0312 138.248 32.8317 138.507 32.6975 138.801C32.5529 139.124 32.4812 139.475 32.4875 139.829C32.4789 140.16 32.5408 140.489 32.6689 140.794C32.7843 141.053 32.9444 141.29 33.1421 141.494C33.3392 141.696 33.5616 141.87 33.8039 142.014C34.0506 142.161 34.3047 142.295 34.5653 142.416C34.8262 142.537 35.0812 142.655 35.3303 142.772C35.5635 142.879 35.7862 143.007 35.9956 143.156C36.1816 143.287 36.341 143.452 36.4652 143.643C36.5882 143.844 36.65 144.077 36.6431 144.312C36.6471 144.535 36.6034 144.756 36.515 144.96C36.4321 145.146 36.3066 145.311 36.1486 145.44C35.9796 145.576 35.7864 145.679 35.5793 145.743C35.343 145.816 35.0967 145.852 34.8493 145.849C34.5353 145.854 34.2223 145.812 33.9207 145.725C33.685 145.654 33.4554 145.565 33.2341 145.458C33.0736 145.38 32.9179 145.292 32.7681 145.194C32.6869 145.129 32.5898 145.087 32.4869 145.073C32.4521 145.072 32.4176 145.081 32.3873 145.098C32.3548 145.119 32.3299 145.15 32.3161 145.187C32.2943 145.24 32.2799 145.296 32.2734 145.354C32.2629 145.44 32.2582 145.527 32.2593 145.614C32.2558 145.732 32.269 145.851 32.2983 145.966C32.3208 146.047 32.3625 146.122 32.42 146.183C32.5079 146.264 32.6059 146.333 32.7116 146.389C32.8773 146.482 33.0505 146.56 33.2293 146.624C33.4588 146.706 33.6943 146.771 33.9338 146.816C34.2164 146.87 34.5036 146.896 34.7913 146.894C35.2094 146.898 35.6257 146.838 36.0259 146.717C36.3898 146.608 36.7285 146.428 37.0223 146.187C37.3035 145.953 37.5295 145.661 37.6841 145.329C37.8483 144.968 37.9297 144.574 37.9224 144.177C37.9302 143.851 37.8684 143.527 37.741 143.226H37.7413ZM45.476 137.84C45.4698 137.782 45.4544 137.726 45.4304 137.673C45.4135 137.635 45.3863 137.603 45.3521 137.58C45.321 137.561 45.2853 137.551 45.249 137.552H38.8437C38.8074 137.551 38.7717 137.561 38.7406 137.58C38.7068 137.602 38.6808 137.635 38.666 137.673C38.6438 137.726 38.6282 137.782 38.6196 137.84C38.607 137.919 38.601 137.998 38.6018 138.078C38.6009 138.157 38.6069 138.235 38.6196 138.313C38.6281 138.368 38.6437 138.422 38.666 138.473C38.6815 138.51 38.7075 138.541 38.7406 138.562C38.7716 138.581 38.8074 138.591 38.8437 138.591H41.434V146.574C41.4332 146.609 41.4431 146.644 41.4624 146.674C41.4874 146.706 41.5224 146.73 41.562 146.741C41.6246 146.761 41.689 146.776 41.7542 146.784C41.9492 146.808 42.1463 146.808 42.3412 146.784C42.4052 146.775 42.4683 146.761 42.5298 146.741C42.5694 146.73 42.6043 146.706 42.6294 146.674C42.6487 146.644 42.6587 146.609 42.658 146.574V138.591H45.248C45.2844 138.591 45.3202 138.581 45.3511 138.562C45.3848 138.54 45.4118 138.509 45.4295 138.473C45.4535 138.423 45.4689 138.369 45.4751 138.313C45.4853 138.235 45.4901 138.157 45.4894 138.078C45.4902 137.999 45.4856 137.919 45.4757 137.84H45.476ZM53.0792 146.414C53.0602 146.346 53.0175 146.226 52.951 146.055L52.1253 144.027C52.0304 143.795 51.9355 143.586 51.8406 143.401C51.7538 143.229 51.6527 143.065 51.5383 142.91C51.4381 142.775 51.3222 142.652 51.1931 142.544C51.068 142.441 50.9291 142.356 50.7804 142.291C51.0371 142.203 51.2829 142.086 51.5134 141.943C51.7253 141.811 51.9152 141.646 52.076 141.455C52.2349 141.263 52.3567 141.044 52.4353 140.808C52.5219 140.54 52.564 140.26 52.5599 139.979C52.5634 139.682 52.5164 139.388 52.421 139.107C52.3309 138.848 52.1893 138.609 52.0048 138.406C51.8104 138.195 51.5773 138.024 51.3181 137.901C51.0191 137.76 50.7017 137.662 50.3753 137.609C50.2518 137.595 50.1131 137.582 49.959 137.57C49.8049 137.558 49.6116 137.552 49.379 137.552H47.4218C47.3092 137.554 47.2002 137.592 47.1122 137.663C47.0591 137.711 47.0182 137.772 46.9928 137.839C46.9675 137.906 46.9584 137.979 46.9664 138.05V146.575C46.9656 146.61 46.9755 146.645 46.9948 146.675C47.0198 146.707 47.0547 146.731 47.0944 146.742C47.1558 146.762 47.2189 146.776 47.283 146.785C47.4791 146.809 47.6774 146.809 47.8736 146.785C47.9365 146.777 47.9985 146.762 48.0586 146.742C48.0977 146.73 48.1323 146.706 48.1582 146.675C48.1797 146.646 48.1909 146.611 48.1903 146.575V142.654H49.0086C49.254 142.647 49.4982 142.69 49.7272 142.778C49.9221 142.858 50.0988 142.977 50.2467 143.127C50.3995 143.285 50.5276 143.464 50.6268 143.66C50.7336 143.867 50.8368 144.093 50.9364 144.34L51.7831 146.51C51.7988 146.561 51.8216 146.609 51.8508 146.653C51.8785 146.692 51.9167 146.723 51.961 146.742C52.0213 146.766 52.0849 146.781 52.1496 146.787C52.2501 146.798 52.351 146.803 52.452 146.801C52.5661 146.803 52.6801 146.798 52.7936 146.787C52.8615 146.781 52.9285 146.767 52.9928 146.744C53.0312 146.733 53.0641 146.708 53.0852 146.673C53.1001 146.642 53.1074 146.608 53.1067 146.574C53.104 146.52 53.0946 146.466 53.0789 146.415L53.0792 146.414ZM51.1543 140.725C51.0806 140.915 50.9622 141.085 50.8092 141.22C50.638 141.368 50.4382 141.479 50.2222 141.547C49.9514 141.631 49.6691 141.67 49.3858 141.665H48.1905V138.562H49.2222C49.4641 138.562 49.6598 138.57 49.8092 138.584C49.945 138.596 50.0796 138.619 50.2112 138.655C50.5383 138.728 50.8269 138.92 51.0223 139.192C51.1906 139.466 51.2747 139.784 51.2643 140.106C51.2664 140.318 51.229 140.528 51.154 140.725H51.1543ZM56.2485 137.737C56.2492 137.701 56.2393 137.667 56.22 137.637C56.195 137.604 56.1601 137.581 56.1204 137.57C56.0589 137.55 55.9958 137.535 55.9317 137.527C55.8339 137.514 55.7352 137.508 55.6366 137.509C55.5425 137.508 55.4486 137.514 55.3554 137.527C55.2903 137.536 55.2261 137.55 55.1633 137.57C55.1218 137.581 55.0847 137.604 55.0569 137.637C55.0354 137.666 55.0241 137.701 55.0248 137.737V146.574C55.024 146.61 55.0339 146.644 55.0532 146.674C55.0783 146.707 55.1133 146.73 55.153 146.742C55.2156 146.762 55.2798 146.776 55.3451 146.784C55.54 146.808 55.7371 146.808 55.932 146.784C55.9961 146.776 56.0592 146.761 56.1207 146.742C56.1603 146.73 56.1953 146.707 56.2203 146.674C56.2396 146.644 56.2495 146.61 56.2488 146.574V137.737H56.2485ZM62.649 137.772C62.632 137.724 62.6054 137.679 62.5706 137.641C62.5311 137.601 62.4821 137.573 62.4283 137.559C62.3495 137.537 62.2684 137.524 62.1867 137.519C62.087 137.512 61.9613 137.508 61.8096 137.508C61.6676 137.508 61.5503 137.512 61.4574 137.519C61.3801 137.524 61.3036 137.537 61.2293 137.558C61.1783 137.572 61.1318 137.599 61.0941 137.637C61.0608 137.674 61.0354 137.717 61.0194 137.765L57.9312 146.318C57.8985 146.398 57.878 146.483 57.8704 146.57C57.8674 146.597 57.8703 146.623 57.8789 146.649C57.8875 146.674 57.9016 146.697 57.9202 146.716C57.9738 146.756 58.0382 146.78 58.1052 146.784C58.2173 146.797 58.3303 146.803 58.4432 146.801C58.5513 146.803 58.6594 146.798 58.7669 146.787C58.833 146.782 58.8978 146.767 58.9591 146.742C58.9993 146.724 59.0346 146.697 59.0622 146.663C59.0873 146.63 59.1066 146.593 59.1193 146.553L59.8735 144.34H63.7028L64.4927 146.581C64.509 146.619 64.5294 146.655 64.5536 146.688C64.5796 146.72 64.6142 146.743 64.6533 146.755C64.7179 146.776 64.7849 146.788 64.8525 146.791C64.9402 146.798 65.0576 146.802 65.2047 146.802C65.3223 146.803 65.4398 146.798 65.5569 146.787C65.6247 146.785 65.6904 146.763 65.7456 146.723C65.7651 146.705 65.7801 146.682 65.7894 146.657C65.7986 146.631 65.8019 146.604 65.799 146.578C65.7912 146.491 65.7707 146.406 65.7381 146.325L62.649 137.772ZM63.3819 143.365H60.1801L61.7668 138.776H61.774L63.3819 143.365ZM76.6169 137.84C76.6107 137.782 76.5953 137.726 76.5713 137.673C76.5544 137.635 76.5272 137.603 76.493 137.58C76.4619 137.561 76.4262 137.551 76.3899 137.552H69.9853C69.9489 137.551 69.9132 137.561 69.8822 137.58C69.8484 137.602 69.8223 137.635 69.8075 137.673C69.7853 137.726 69.7697 137.782 69.7611 137.84C69.7485 137.919 69.7425 137.998 69.7433 138.078C69.7424 138.157 69.7484 138.235 69.7611 138.313C69.7696 138.368 69.7852 138.422 69.8075 138.473C69.823 138.51 69.849 138.541 69.8822 138.562C69.9131 138.581 69.9489 138.591 69.9853 138.591H72.5755V146.574C72.5747 146.609 72.5846 146.644 72.6039 146.674C72.6289 146.706 72.6639 146.73 72.7035 146.741C72.7662 146.761 72.8305 146.776 72.8958 146.784C73.0907 146.808 73.2878 146.808 73.4827 146.784C73.5467 146.775 73.6098 146.761 73.6713 146.741C73.7109 146.73 73.7459 146.706 73.7709 146.674C73.7902 146.644 73.8001 146.609 73.7993 146.574V138.591H76.3896C76.4259 138.591 76.4617 138.581 76.4927 138.562C76.5263 138.54 76.5533 138.509 76.571 138.473C76.595 138.423 76.6105 138.369 76.6166 138.313C76.6268 138.235 76.6316 138.157 76.6309 138.078C76.6317 137.999 76.6271 137.919 76.6172 137.84H76.6169ZM83.2164 146.016C83.2099 145.961 83.193 145.908 83.1666 145.859C83.1469 145.823 83.1188 145.793 83.0848 145.77C83.0537 145.751 83.0179 145.741 82.9815 145.742H79.332V142.447H82.4202C82.4562 142.448 82.4916 142.439 82.5233 142.422C82.5567 142.403 82.5839 142.375 82.6016 142.34C82.6255 142.294 82.6409 142.243 82.6473 142.191C82.6575 142.118 82.6622 142.044 82.6614 141.971C82.6621 141.892 82.6574 141.814 82.6473 141.736C82.6415 141.681 82.6261 141.628 82.6016 141.579C82.5826 141.544 82.5558 141.513 82.5233 141.49C82.4931 141.469 82.4571 141.458 82.4202 141.458H79.3318V138.569H82.9324C82.9688 138.569 83.0045 138.559 83.0355 138.54C83.0687 138.519 83.0947 138.488 83.1103 138.451C83.132 138.401 83.1473 138.349 83.1559 138.295C83.1685 138.221 83.1745 138.146 83.1737 138.071C83.1748 137.991 83.1689 137.911 83.1559 137.832C83.1469 137.778 83.1316 137.724 83.1103 137.672C83.0954 137.635 83.0693 137.602 83.0355 137.58C83.0045 137.561 82.9687 137.551 82.9324 137.551H78.5633C78.4507 137.553 78.3417 137.591 78.2537 137.662C78.2006 137.71 78.1597 137.771 78.1343 137.838C78.109 137.906 78.0999 137.978 78.1079 138.05V146.261C78.0999 146.333 78.109 146.405 78.1344 146.472C78.1597 146.54 78.2006 146.6 78.2537 146.649C78.3417 146.719 78.4507 146.758 78.5633 146.759H82.9821C83.0185 146.759 83.0543 146.75 83.0854 146.731C83.1201 146.707 83.1482 146.675 83.1672 146.638C83.1932 146.588 83.2101 146.534 83.217 146.478C83.2271 146.404 83.2319 146.329 83.2312 146.254C83.2321 146.174 83.2274 146.095 83.217 146.016H83.2164ZM80.4413 134.748C80.3797 134.751 80.3188 134.762 80.2597 134.78C80.1599 134.81 80.071 134.868 80.0037 134.947L78.4103 136.563C78.3758 136.597 78.3491 136.638 78.332 136.684C78.3268 136.698 78.3265 136.714 78.331 136.729C78.3355 136.743 78.3446 136.756 78.357 136.765C78.3974 136.792 78.4438 136.81 78.4921 136.815C78.5827 136.829 78.6743 136.835 78.7659 136.833C78.8941 136.833 79.0008 136.831 79.0861 136.826C79.1578 136.823 79.2291 136.814 79.299 136.797C79.3497 136.786 79.3979 136.765 79.4413 136.737C79.4821 136.708 79.5202 136.676 79.5552 136.641L80.6866 135.445L81.7823 136.676C81.8075 136.701 81.8348 136.724 81.8641 136.744C81.9022 136.768 81.9445 136.785 81.9888 136.794C82.0569 136.808 82.1258 136.817 82.1952 136.822C82.2805 136.829 82.3944 136.833 82.5367 136.833C82.6223 136.834 82.7079 136.829 82.7928 136.818C82.8432 136.815 82.892 136.799 82.9351 136.773C82.9485 136.764 82.9586 136.75 82.9637 136.735C82.9689 136.72 82.9688 136.703 82.9636 136.688C82.9472 136.641 82.9205 136.598 82.8854 136.563L81.3634 134.947C81.3269 134.91 81.2876 134.876 81.246 134.844C81.2068 134.816 81.1636 134.795 81.1178 134.78C81.0613 134.762 81.0027 134.752 80.9435 134.748C80.8769 134.744 80.7941 134.741 80.6945 134.741C80.5949 134.741 80.5105 134.744 80.4419 134.748L80.4413 134.748ZM88.7417 142.056L91.1326 137.993C91.1794 137.914 91.2131 137.829 91.2322 137.74C91.2386 137.714 91.2377 137.686 91.2297 137.661C91.2217 137.635 91.2067 137.612 91.1865 137.594C91.1274 137.554 91.0586 137.531 90.9873 137.526C90.868 137.513 90.7479 137.507 90.6279 137.509C90.4902 137.509 90.3811 137.512 90.3006 137.519C90.2365 137.523 90.1732 137.535 90.1121 137.555C90.0716 137.568 90.0358 137.593 90.0088 137.626C89.9851 137.657 89.9614 137.692 89.9376 137.729L87.9737 141.173L85.9952 137.73C85.9669 137.692 85.9408 137.657 85.9169 137.626C85.8871 137.592 85.8474 137.567 85.8032 137.555C85.7337 137.536 85.6623 137.524 85.5903 137.52C85.5001 137.513 85.3839 137.509 85.2416 137.509C85.0754 137.509 84.9449 137.514 84.8502 137.523C84.7784 137.524 84.7087 137.548 84.651 137.591C84.6319 137.61 84.6188 137.634 84.6131 137.661C84.6074 137.687 84.6094 137.715 84.6189 137.74C84.6458 137.828 84.6829 137.913 84.7293 137.993L87.1272 142.084L84.6154 146.318C84.5656 146.395 84.5283 146.479 84.505 146.567C84.4979 146.593 84.4975 146.619 84.5037 146.645C84.5099 146.67 84.5226 146.694 84.5406 146.713C84.5944 146.756 84.6605 146.781 84.7293 146.784C84.8522 146.798 84.9757 146.804 85.0993 146.802C85.2412 146.802 85.3551 146.798 85.4408 146.791C85.5096 146.787 85.5776 146.775 85.6437 146.756C85.6875 146.743 85.7277 146.719 85.7611 146.688C85.7919 146.656 85.8183 146.621 85.8394 146.582L87.91 142.917L89.9594 146.582C89.9753 146.62 89.9982 146.655 90.0269 146.685C90.0597 146.715 90.0985 146.738 90.1408 146.752C90.2063 146.775 90.2746 146.788 90.3437 146.792C90.4289 146.799 90.5475 146.802 90.6993 146.802C90.8289 146.804 90.9584 146.798 91.0872 146.785C91.1624 146.781 91.235 146.756 91.2971 146.713C91.3179 146.696 91.3332 146.673 91.3413 146.647C91.3494 146.621 91.3499 146.594 91.3427 146.568C91.3194 146.479 91.2822 146.395 91.2325 146.318L88.7417 142.056ZM98.8352 137.84C98.8291 137.782 98.8137 137.725 98.7896 137.672C98.7727 137.635 98.7456 137.603 98.7114 137.58C98.6803 137.561 98.6445 137.551 98.6081 137.551H92.204C92.1676 137.551 92.1318 137.561 92.1007 137.58C92.0669 137.602 92.0409 137.634 92.0261 137.672C92.0042 137.726 91.9888 137.782 91.9805 137.84C91.9679 137.918 91.962 137.998 91.9628 138.078C91.9619 138.157 91.9678 138.235 91.9805 138.313C91.9887 138.368 92.0041 138.422 92.0261 138.473C92.0416 138.509 92.0676 138.54 92.1007 138.562C92.1318 138.581 92.1676 138.591 92.204 138.59H94.7941V146.574C94.7933 146.609 94.8032 146.644 94.8225 146.673C94.8475 146.706 94.8825 146.73 94.9221 146.741C94.9847 146.761 95.0491 146.775 95.1143 146.784C95.3093 146.807 95.5064 146.807 95.7013 146.784C95.7653 146.775 95.8284 146.761 95.8899 146.741C95.9295 146.73 95.9644 146.706 95.9895 146.673C96.0088 146.644 96.0188 146.609 96.018 146.574V138.59H98.6081C98.6446 138.591 98.6803 138.581 98.7114 138.562C98.7449 138.54 98.7719 138.509 98.7896 138.473C98.8138 138.423 98.8292 138.368 98.8352 138.313C98.8455 138.235 98.8502 138.157 98.8495 138.078C98.8503 137.998 98.8458 137.919 98.8358 137.84L98.8352 137.84ZM101.55 137.736C101.551 137.701 101.541 137.666 101.521 137.637C101.496 137.604 101.461 137.58 101.422 137.569C101.36 137.549 101.297 137.535 101.233 137.526C101.135 137.513 101.036 137.507 100.938 137.509C100.844 137.508 100.75 137.514 100.657 137.526C100.592 137.535 100.527 137.55 100.465 137.569C100.423 137.58 100.386 137.604 100.358 137.637C100.337 137.666 100.325 137.701 100.326 137.736V146.574C100.325 146.609 100.335 146.644 100.354 146.674C100.379 146.706 100.414 146.73 100.454 146.741C100.517 146.761 100.581 146.776 100.646 146.784C100.841 146.808 101.038 146.808 101.233 146.784C101.297 146.775 101.36 146.761 101.422 146.741C101.461 146.73 101.496 146.706 101.522 146.674C101.541 146.644 101.551 146.609 101.55 146.574V137.737L101.55 137.736ZM108.904 145.983C108.898 145.928 108.882 145.874 108.858 145.823C108.84 145.787 108.813 145.755 108.78 145.731C108.747 145.709 108.709 145.698 108.67 145.699H105.368V137.737C105.369 137.701 105.359 137.667 105.34 137.637C105.315 137.604 105.28 137.581 105.24 137.57C105.179 137.55 105.116 137.535 105.052 137.527C104.857 137.503 104.659 137.503 104.464 137.527C104.399 137.535 104.335 137.549 104.272 137.57C104.233 137.581 104.198 137.604 104.173 137.637C104.153 137.667 104.144 137.701 104.144 137.737V146.261C104.136 146.333 104.145 146.405 104.171 146.473C104.196 146.54 104.237 146.6 104.29 146.649C104.378 146.719 104.487 146.758 104.6 146.759H108.67C108.709 146.76 108.748 146.749 108.78 146.727C108.815 146.702 108.842 146.667 108.858 146.628C108.881 146.576 108.897 146.52 108.904 146.464C108.914 146.385 108.919 146.305 108.918 146.226C108.919 146.145 108.915 146.064 108.904 145.984L108.904 145.983ZM111.914 145.436C111.893 145.368 111.85 145.308 111.793 145.265C111.729 145.224 111.658 145.197 111.583 145.187C111.482 145.172 111.379 145.164 111.277 145.166C111.172 145.164 111.067 145.172 110.964 145.187C110.888 145.198 110.815 145.225 110.751 145.265C110.691 145.307 110.648 145.367 110.626 145.436C110.597 145.535 110.584 145.639 110.587 145.742V146.653L109.641 148.609C109.624 148.64 109.615 148.674 109.616 148.709C109.617 148.722 109.621 148.736 109.628 148.747C109.635 148.759 109.644 148.769 109.655 148.777C109.691 148.797 109.731 148.809 109.773 148.812C109.84 148.82 109.908 148.824 109.975 148.823C110.05 148.824 110.125 148.82 110.2 148.812C110.253 148.806 110.306 148.793 110.356 148.773C110.397 148.757 110.435 148.735 110.47 148.709C110.501 148.685 110.529 148.656 110.552 148.624L111.527 147.158C111.601 147.049 111.669 146.937 111.73 146.82C111.838 146.61 111.907 146.382 111.932 146.147C111.947 146.013 111.954 145.877 111.954 145.742C111.957 145.638 111.944 145.535 111.914 145.436L111.914 145.436ZM122.523 143.227C122.408 142.967 122.246 142.731 122.046 142.529C121.846 142.33 121.619 142.157 121.374 142.017C121.122 141.872 120.866 141.74 120.605 141.619C120.344 141.498 120.088 141.378 119.837 141.259C119.601 141.15 119.376 141.019 119.164 140.868C118.977 140.736 118.816 140.569 118.691 140.377C118.569 140.178 118.507 139.948 118.513 139.715C118.512 139.545 118.544 139.376 118.606 139.217C118.666 139.062 118.761 138.924 118.883 138.812C119.02 138.69 119.18 138.597 119.353 138.538C119.568 138.465 119.795 138.43 120.022 138.435C120.274 138.431 120.524 138.466 120.765 138.538C120.963 138.597 121.154 138.674 121.338 138.766C121.499 138.849 121.636 138.924 121.747 138.99C121.82 139.042 121.905 139.076 121.993 139.09C122.026 139.09 122.057 139.079 122.082 139.058C122.111 139.031 122.133 138.997 122.143 138.958C122.159 138.904 122.17 138.848 122.175 138.791C122.182 138.715 122.186 138.639 122.185 138.563C122.185 138.473 122.183 138.399 122.178 138.342C122.175 138.293 122.168 138.244 122.157 138.196C122.15 138.162 122.138 138.128 122.121 138.097C122.096 138.058 122.066 138.022 122.032 137.99C121.947 137.919 121.852 137.859 121.751 137.812C121.594 137.733 121.431 137.666 121.264 137.613C121.073 137.552 120.878 137.504 120.68 137.471C120.477 137.436 120.271 137.418 120.065 137.417C119.688 137.414 119.312 137.468 118.951 137.578C118.627 137.674 118.325 137.832 118.062 138.044C117.812 138.248 117.613 138.508 117.478 138.801C117.334 139.125 117.262 139.476 117.268 139.83C117.26 140.16 117.322 140.489 117.45 140.794C117.565 141.053 117.725 141.291 117.923 141.495C118.12 141.696 118.343 141.871 118.585 142.014C118.832 142.161 119.086 142.295 119.346 142.416C119.607 142.537 119.862 142.656 120.111 142.772C120.344 142.879 120.567 143.008 120.777 143.156C120.963 143.287 121.122 143.453 121.246 143.644C121.369 143.845 121.431 144.077 121.424 144.313C121.428 144.535 121.384 144.756 121.296 144.96C121.213 145.147 121.087 145.311 120.93 145.44C120.761 145.576 120.567 145.679 120.36 145.743C120.124 145.816 119.878 145.852 119.63 145.849C119.316 145.855 119.003 145.813 118.702 145.725C118.466 145.655 118.236 145.565 118.015 145.458C117.854 145.38 117.699 145.292 117.549 145.195C117.468 145.13 117.371 145.088 117.268 145.073C117.233 145.072 117.199 145.081 117.168 145.098C117.136 145.119 117.111 145.151 117.097 145.187C117.075 145.24 117.061 145.297 117.054 145.354C117.044 145.44 117.039 145.527 117.04 145.614C117.037 145.733 117.05 145.851 117.079 145.966C117.102 146.047 117.143 146.122 117.201 146.183C117.289 146.264 117.387 146.334 117.493 146.39C117.659 146.482 117.833 146.561 118.012 146.624C118.242 146.707 118.477 146.771 118.717 146.816C118.999 146.87 119.286 146.897 119.574 146.895C119.992 146.898 120.408 146.838 120.809 146.717C121.173 146.608 121.511 146.428 121.805 146.187C122.086 145.953 122.312 145.661 122.467 145.329C122.631 144.968 122.712 144.574 122.705 144.177C122.713 143.851 122.651 143.527 122.524 143.226L122.523 143.227ZM125.817 145.329C125.708 145.22 125.511 145.166 125.227 145.166C124.933 145.166 124.73 145.221 124.619 145.333C124.507 145.444 124.451 145.669 124.451 146.005C124.451 146.333 124.506 146.551 124.615 146.66C124.724 146.769 124.921 146.824 125.206 146.824C125.5 146.824 125.702 146.768 125.814 146.656C125.925 146.545 125.981 146.321 125.981 145.984C125.982 145.656 125.927 145.438 125.818 145.329L125.817 145.329ZM132.318 137.772C132.301 137.723 132.274 137.678 132.239 137.64C132.2 137.601 132.151 137.573 132.097 137.558C132.018 137.537 131.937 137.523 131.855 137.519C131.755 137.512 131.63 137.509 131.478 137.509C131.336 137.509 131.219 137.512 131.126 137.519C131.048 137.524 130.972 137.537 130.898 137.558C130.847 137.573 130.8 137.6 130.762 137.637C130.729 137.674 130.704 137.717 130.688 137.765L127.6 146.318C127.567 146.399 127.547 146.484 127.539 146.571C127.536 146.597 127.539 146.624 127.547 146.649C127.556 146.674 127.57 146.697 127.589 146.717C127.642 146.757 127.707 146.781 127.774 146.784C127.886 146.797 127.999 146.803 128.112 146.802C128.22 146.803 128.328 146.798 128.436 146.788C128.502 146.783 128.566 146.767 128.628 146.742C128.668 146.725 128.703 146.698 128.731 146.664C128.756 146.631 128.775 146.593 128.788 146.554L129.542 144.341H133.37L134.16 146.582C134.176 146.62 134.197 146.655 134.221 146.688C134.247 146.72 134.282 146.744 134.321 146.756C134.385 146.776 134.452 146.788 134.52 146.792C134.608 146.799 134.725 146.802 134.872 146.802C134.99 146.804 135.107 146.799 135.224 146.788C135.292 146.786 135.358 146.764 135.413 146.724C135.433 146.705 135.448 146.683 135.457 146.657C135.466 146.632 135.469 146.605 135.466 146.578C135.459 146.491 135.438 146.406 135.406 146.326L132.318 137.772ZM133.05 143.365H129.849L131.436 138.775H131.443L133.05 143.365Z" fill="#2d3134"/>
<path d="M1.00878 120.929L1.00874 2.53759C1.00874 1.30756 2.03381 1 2.54632 1L66.3545 1.00005C67.1232 1.00006 69.4296 1.00003 69.4296 4.07514C69.4296 7.15026 67.1233 7.91899 66.3545 7.91901H8.69647L8.69651 58.433H60.2043C61.7418 58.433 61.7419 60.1956 61.7419 61.7331C61.7419 63.2706 61.7418 64.8083 59.4355 64.8082H8.69647L8.69651 120.929C8.69652 122.466 7.15892 122.466 4.8526 122.466C2.54628 122.466 1.00881 122.466 1.00878 120.929Z" fill="#2d3134" stroke="#2d3134"/>
<path d="M84.8051 121.697V4.84381L135.544 79.4148L186.283 4.84381V120.929" stroke="#2d3134"/>
<path d="M323.394 60.9643C323.394 93.8117 297.109 120.429 264.698 120.429C232.287 120.429 206.003 93.8117 206.003 60.9643C206.003 28.117 232.287 1.5 264.698 1.5C297.109 1.5 323.394 28.117 323.394 60.9643Z" stroke="#2d3134"/>
<path d="M341.575 7.15021V120.929M341.575 7.15021C341.575 7.15021 360.795 7.15021 386.164 7.15021M341.575 7.15021H386.164M341.575 120.929C341.575 120.929 364.639 120.929 386.164 120.929M341.575 120.929H386.164M386.164 120.929C407.69 120.929 436.135 104.016 436.135 61.7331C436.135 28.6759 411.534 7.1502 386.164 7.15021" stroke="#2d3134"/>
<path d="M438.441 120.929L454.845 80.1837M533 120.16L517.062 80.1837M517.062 80.1837L486.105 2.53754L454.845 80.1837M517.062 80.1837H454.845" stroke="#2d3134"/>
</svg>
